<svg xmlns="http://www.w3.org/2000/svg" viewBox="0 0 229.82 175.39"><defs><style>.cls-1,.cls-3{fill:none;stroke:#cccccb;stroke-width:0.28px;}.cls-1{stroke-miterlimit:10;}.cls-2{fill:#41beb1;}.cls-3{stroke-linecap:round;stroke-linejoin:round;}</style></defs><g id="Layer_2" data-name="Layer 2"><g id="Layer_1-2" data-name="Layer 1"><g id="Layer_7" data-name="Layer 7"><g id="Group_3262" data-name="Group 3262"><g id="Group_3261" data-name="Group 3261"><g id="Group_3260" data-name="Group 3260"><path id="Path_3693" data-name="Path 3693" class="cls-1" d="M224,143.59l.08-.22v-.07l.07-.15.08-.07V143l.07-.07v-.3l.07.08.08-.15.29.15h.08l.14.14.22-.14.08-.08v-.36h.37v.07l.14-.07.15-.15h.44V142l.22.08.08-.15.14-.15H227l.22-.07h.08l-.22.15V142l-.15.15-.22.08h-.07l-.08.14-.14.08h-.23l-.14-.08-.08.15-.22.15-.14.07-.15.15-.15.14-.07.15-.08.08-.14.07H225l-.07.07-.07-.14h-.22l-.23.22-.36.07"/><path id="Path_3694" data-name="Path 3694" class="cls-1" d="M221.2,149.62l.07-.14.22-.15.15-.15v-.3l-.07-.29.22.22.22.22.74.3.07.07H223l.07.07.08.08-.08.07H223l-.15.15V150l.08.29.07.22-.07.08-.08.22.08.22-.3.22v-.07l-.07-.81-.22-.37-.07-.07-.45-.15h-.51l-.07-.07-.08-.08"/><path id="Path_3695" data-name="Path 3695" class="cls-1" d="M219.06,146.53l.22-.07.45-.29h.44l.29-.23.07.15-.22.15-.36.07h-.08l-.15.15-.29.66v-.07l-.15-.22h-.22v-.3"/><path id="Path_3696" data-name="Path 3696" class="cls-1" d="M173.9,160.81l.07-.08.08.08.14.14h-.07l-.07.08v.22l.07.07h-.07l-.08-.07-.07-.15v-.29"/><path id="Path_3697" data-name="Path 3697" class="cls-1" d="M173.9,159.78v-.08l.07-.07.08.07v.22L174,160l-.14-.08.07-.14"/><path id="Path_3698" data-name="Path 3698" class="cls-1" d="M166.69,167.72v-.07l.22-.22h.15l.07.07-.07.15H167l-.07.07-.15.07-.07-.07"/><path id="Path_3699" data-name="Path 3699" class="cls-1" d="M166.1,167.5l.15-.37h.07v.08l-.15.36v.08l-.07-.08v-.07"/><path id="Path_3700" data-name="Path 3700" class="cls-1" d="M162.79,169.34v.07h.07v.15l-.07-.07v-.15"/><path id="Path_3701" data-name="Path 3701" class="cls-1" d="M160.14,174.78l.08-.22v-.07l.14-.08.15-.14v-.44l-.07-.15v-.07l-.08-.22.52-.45h.36v-.07l.08-.07.07-.15.08-.44.07-.22v-.37l.07-.07.15-.3.08-.14-.08-.59h-.15v-.59l.08-.08.07-.07.15-.15.07-.07.08-.08.07-.07h.3l.07.07.07.08h.22l.22.07h.15l.15-.07.36-.08h.3l.22-.07h.07l.3-.07.29-.15h.44l.08.07v.08l.07.07.07.08V170l.08.07v.08l.07.15.08.14.07.15.07.15.15.14-.15.3-.07.14-.07.15-.15.22-.22.22-.15.15-.07.07v.08l-.22.15-.08.14-.15.15v.07l-.14.15-.08.07-.14.23v-.08l-.3.22-.22.22-.22.3-.07-.15h-.08l-.07-.07-.08.07h-.07l-.29.22V174l-.15.07h-.07l-.3.22-.14-.07-.37.29-.15.07-.29.08-.3.29-.37.08-.07.07h-.07l-.22.15-.15-.08v-.07l-.07-.07-.08-.15v-.08"/><path id="Path_3702" data-name="Path 3702" class="cls-1" d="M103.79,43.1V43h.08l.07.07-.07.08h-.08V43.1"/><path id="Path_3703" data-name="Path 3703" class="cls-1" d="M102.62,40.38l.07-.15.15-.14.22-.15h.07V40l-.22.22-.15.08-.14.07"/><path id="Path_3704" data-name="Path 3704" class="cls-1" d="M98.5,39.57l.07-.07v-.15l.07-.14.37-.3v.15l-.07.07h-.08l-.07.22.15.08v.29h-.15l-.07-.15-.15.08-.07-.08"/><path id="Path_3705" data-name="Path 3705" class="cls-1" d="M97.91,45.6,98.2,45l.44-.36.15-.08.15.08.14-.08V44.2l.3-.14h.07l-.07.14v.15l-.08.22-.22.22-.29.66-.22.15-.22-.07h-.22L98,45.6H97.9"/><path id="Path_3706" data-name="Path 3706" class="cls-1" d="M97.47,45.75l.14-.22.15.07-.07.08h-.08l-.07.07h-.08"/><path id="Path_3707" data-name="Path 3707" class="cls-1" d="M97.17,39.42l.07-.29.3-.22h.29l.22-.15.3.08v.22l-.15.36-.44.23h-.37l-.15-.08-.07-.07v-.08"/><path id="Path_3708" data-name="Path 3708" class="cls-1" d="M96.73,45.38l.07-.07.07-.08H97l-.08.08v.14l-.07-.07h-.07"/><path id="Path_3709" data-name="Path 3709" class="cls-1" d="M95.41,45.16l.58-.74.52-.51.22.07.07-.07h.52v.15h-.15l-.07.22-.08.14-.14.08-.15.22-.22.07-.52.3-.07.07-.15-.07-.14.14h-.15l-.07-.07"/><path id="Path_3710" data-name="Path 3710" class="cls-1" d="M185.67,158.45l.07.08.22-.15.15-.07v-.44h-.22l-.22-.23-.22.08v.15h-.37v.07l-.08-.07-.14-.08-.08-.07-.07.22V158l-.07.08v.22l-.08-.08v-.14l.15-.22-.07-.37v-.45l.07-.29v-.07h.22l.59.66.22.22.37.22h.22l.07-.07.37-.08h.37l.22.08.44.07.15.07.29.08.44.22h.3l.37.07.22.07.14.08h.08v.07l.14-.07,1.48-.59.66-.37.07-.15v-.07l.07-.37v-.44l-.14-.15-.15-.07-.15-.22h-.07l.37.07.29-.07.22-.07.37-.37.22.22.22.07h.3v-.07h.14l.15-.08.29.08.23.07.14.08h.08l.22.07.07.07V156h.22l.37-.07h.59l.37-.07h1.69l.37.07h.66l.37-.07h.14l.44-.08h.15v-.08h.3l.36-.14h.89l.29.07H203l.81-.15.73-.22.3-.14.07-.08.66-.07H206l.37-.08.29-.07H207l.52-.22.36-.14.44-.22.15-.08.07-.07.45-.44h.07l.07-.22h.15l.22-.23.74-.66.07-.07.08-.08h.22l.44-.22v-.07l.14-.07.37-.15.08-.07.44-.52.37-.73.14-.08.59-.07.15-.07.44-.22V150h.07l.22-.29.08-.08.07-.29.15-.22h.22l.15-.3.07-.07.07-.15.08-.07v-.22l.22-.08h.22l.22.08h.29l.08-.08.07-.14.15-.15h.15l.22-.22.22-.15.37-.14.14.14.15.08.66-.37.22.07.15-.07-.15.22-.14.15-.22.44-.08.14v.15l-.15.15-.14.07h-.15l-.22.3h-.07l-.23.14-.07.08-.07.14h-.22l.22-.22.22-.29-.08-.07v-.08l-.36-.07-.15-.22h-.08l-.07-.08h-.22v.15l-.22.15h-.07l-.08.29-.15.22v.08l-.07.14.07.15.08.15h.15l.14.14.15.08V150l.07.22.3.07.22.15.07.07.15-.07.37.07h.07l.07.08v.07l-.07.15-.07.07V151h-.08l.08.07.29.59.22.22.15.08.37-.08.22-.07h.29l.3.15h.07l.29.22.23.07H220l.07-.07.15-.08.07-.07.15-.37.22-.15.15-.14h.07l.15.07h.07l.08.07.15.15.22.22.07.3-.07.29.36.29.15.3.08.15.07.14v.08l.29.14.15.15h.22l.08-.07.29-.15.07-.29V153l.08-.08.36-.07v-.07l.08-.08v-.14h.14v-.15l.15-.08h.08l.22.08h.44l.22-.15.15-.22.36-.44.15-.22v-.08l.07-.07h.3v.15l.29.14.22-.07.15-.22V151l-.07-.22-.08-.15.08-.22v-.07l.07-.08.29-.07.23-.15h.07l.44-.15.44-.22h.15v.22l.15.08.14.07.3-.07.29.07.15-.07.22.07.07.15-.07.15-.08.07-.14.15v.07l-.15.08-.07.22-.08.07-.07.08-.22.07-.3.15-.07.14h-.07l-.3.08H228l-.59.22-.29.15-.15.07-.22.07-1.47.89-.44.22-.08.07-2.13,1-.15.08-.15.07-.14.07-.81.45-.22.14-1,.52-.15.07-1,.52-.14.14-.22.15h-.08l-.37.22-.07.08-.37.22-.22.14-.22.08-.22.14-.52.3-.29.15-.07.07-.37.15-.3.22h-.07l-.88.51-.3.15-2.13,1h-.07L212,160h-.07l-.22.08-.66.29-1,.44-.22.08-.52.22-.22.07-.66.29-.51.23h-.08l-.22.14-.15.08-.95.36-.44.15H206v.08l-.44.14-.88.37-.51.22-.23.15-.14-.07-.3.14-.44.22-.73.3-1.55.66-.29.15-1.47.73-2.58,1.4-.15.08-.14.07-1,.44-.88.3-1.69.58-.3.08h-.07v.07l-.3.08-1.17.44-.89.22-.73.15-1.25.07h-.15l-.15-.15-.29-.29-.44.07-.29.08-1.18.51-.74.3-.22.07-.73.29-.81.15-.22.07-.3.08-.07.07-.44.08h-.08l-.37.14-.58.22-.74.3.07-.3h-.66l-.15-.07h-.36l-.52.15-.29.07h-2.72l-.15-.07h-.22l-.37.14v-.29h-.36l-.08.07h-.15l-.29.08h-.15l-.14.07-.15.08h-.22l-.07.07-.15.07h-.15l-.22.15h-.15l-.07.07h-.07l-.08.08h-.07l-.08.07-.29.15-.22.07-.22.15-.22.07-.08.08-.44.15h-.22l-.37.14-.66.44v-.44l.08-.14v-.25l.07-.14V172l.07-.15-.22.07h-.51l-.08.08-.66.07-.29.07h-.3l-.14-.07h-.08l-.07-.07-.08-.08v-.07h.08v-.15h.29v-.37l-.07-.07v-.07l-.08-.08-.07-.07h-.07V171h-.15l-.07-.07h-.3l-.15-.07-.07-.15h-.07l-.08-.15v-.14l-.07-.08v-.44l.07-.14v-.15l.08-.07.07-.15v-.07l.22-.23.22-.29v-.15l-.07-.66.15-.07.07-.08.07-.14h.08v-.08l.07-.07v-.15l.08-.07v.07l.07-.07-.07-.07v-.08h.14l-.07-.07-.15-.08-.07.08-.08.07h-.14l-.08-.07-.07-.08v-.07l-.15-.15v-.59l.08-.07v-.37l.07-.15v-.36L167,165l.15-.3v-.07l.15-.22.07-.15v-.07l.08-.15.07-.08v-.07l.07-.07v-.08h.08v-.07l.07-.15v-.07l.08-.07v-.07l.07-.08.07-.07V163l.08-.07.07-.08.08-.22.07-.22.07-.07v-.08l.08-.07v-.07l.07-.08v-.14l.07-.08v-.15l.08-.14v-.15l.07-.15.15-.29.07-.15.15-.44.15-.29.14-.3.08-.22.14-.73v-.08l.08-.07v-.08l.07-.22.08-.44v-.22l.07-.37.07-.22.15-.66.07-.29.08-.59h-.3l-.07-.08-.15-.07-.29-.15-.52-.29-.22-.07-.14-.15h-.08l-.15-.08-.22-.14H168l-.3-.22-.44-.22-.59-.3v-.07l-.37-.15-.14-.07-.22-.15-.08-.07-.29-.15-.22-.07-.3-.23-.14-.07-.3-.15-.29-.14-.15-.08-.22-.14-.52-.23-.14-.14h-.08l-.36-.22-.15-.08-.08-.07-.29-.15-.07-.07-.59-.3-.44-.22-.3-.14-.14-.08-.67-.37-.29-.07v-.07h-.07l-1-.59-.66-.3-.52-.36-.07-.08-.22-.15h-.08l-.29-.14-.15-.15-.51-.29h-.08l-.37-.22-.07-.08-1.25-.73-.08-.08-.36-.22-.52-.37-.22-.07-.15-.07-.22-.15-.66-.37-.74-.44-.36-.22-.59-.37-.15-.07-.22-.15-.15-.08-.95-.58-1-.52-.22-.15-.74-.44-.37-.14-.22-.15v-.08h-.07l.14-.07.08-.07V142l-.08-.14-.14-.15-.22-.15-.08-.07-.07-.08-.07-.14-.08-.15V141l-.07-.07-.15-.08h-.29l-.08-.07-.07-.07-.08-.08-.07-.14v-.3l.07-.07.08-.37v-.15l-.08-.07v-.07H145l-.14.14-.15.08-.07.07h-.15l-.22-.07h-.08l-.14.07-.15.07h-.29l-.08-.07-.15-.29v-.21l-.14-.14-.08-.08H143l-.08.08-.07.07h-.08l-.07.15-.07.14-.08.08h-.22l-.29-.22-.08-.15-.14-.07-.15-.08h-.15l-.37.15-.36.07h-.22v-.14l.07-.15.15-.15v-.07l-.08-.08v-.07l-.14-.07-.23-.08h-.07l-.07-.14V138l-.15-.15-.07-.07h-.3l-.22-.15-.22-.07h-.15l-.07.15-.22.14h-.37l-.37-.14H138v-.15l-.08-.07H138v-.08l.07-.29v-.22l-.07-.15v-.07h-.08l-.07-.08h-.15l-.14.08h-.15v-.3l.07-.07v-.15l-.07-.15-.15-.14-.22-.08v-.07h-.22v-.37H137l.07-.07v-.07L137,135l-.3-.44v-.07h-.14l-.15-.07-.08-.08-.07-.22-.15-.29-.14-.22-.22-.08v-.07l-.08-.08-.14-.22-.08-.07-.14-.15v-.07l.07-.07h.29l.08-.07v-.08l-.08-.07v-.08h.08l.14-.07h.08l.07.07.08.08.07-.08v-.29l-.15-.29v-1l-.07-.22-.08-.22h-.07l-.07-.08v-.14l.14-.15.08-.07V130l-.08-.29-.14-.22-.08-.15-.22-.22v-.3h.52v-.15l-.15-.44v-.29l.07-.37-.07-.29-.07-.15-.15-.29-.07-.08-.15-.07-.08-.08h-.07l-.07-.07H135l-.36.15h-.06l-.23-.08-.07-.07v-.37l.07-.22.23-.37.14-.07.22.07.08-.07h.07l.07-.15v-.44l-.07-.07H135l-.14.15h-.08l-.14-.08-.23-.14-.36-.23-.08-.07v-.22L134,124v-.15l-.08-.07v-.08l-.07-.07-.3.07h-.06l-.3-.29h-.07l-.08.07-.22.08h-.22l-.07-.08-.08-.14-.07-.15v-.44l-.07-.08h-.15l-.08.08-.07.15v.14l-.07.08h-.15v-.08l-.08-.07-.07-.07-.08-.08-.22-.07-.14.07h-.15v.08l-.15.22-.15.14-.22-.07-.07-.07-.07-.15-.08-.07h-.07l-.15.14-.07.08h-.22l-.08-.08-.07-.07v-.22l.07-.08.08-.07v-.07l-.08-.29h-.07l-.15-.07h-.07l-.08-.23v-.22l.15-.14v-.22l-.07-.15-.15-.3-.08-.14v-.44l-.07-.15-.29-.15-.08-.14v-.23l-.07-.14h-.15v.07h-.07v.22h-.08l-.14-.07h-.08l-.14-.15-.08-.29h-.07l-.22-.3h-.15V119h-.15l-.07-.07v-.08l.15-.37v-.07l-.15-.22v-.07l-.15-.08-.15-.07-.22-.08-2.06.08h-3.53l-1.54.07h-1.4l-2.5.08H104.6l-.37.07h-11l-.22-.07H87.39l-.52-.08H80.62l-1.26.08h-6.1L71.2,118H65.9l-.81-.07H55.23l-.44-.08H51.92l-1-.07H49.2l-.44-.07h-3.9l-1.69-.08H40.74l-1-.07H38l-.52-.08H35.44l-1.32-.07H29.26l-.88-.07H25.66l-.89-.08h-.44l-.73-.07H22.5l-1.69-.08h-.52l-2-.07h-.44l-.95-.07H14.85l-1-.08-2.72-.07h-.88l-1.77-.08H7.35l-.52-.07H6.17l-1.69-.07H3.89l-.44-.08H2.72l-2.58-.07v-1.69l.07-1.69.08-1.25v-.51l.07-.74v-1.25l.08-1.84v-.81L.51,106l.52-.22h.14l.08-.08.51-.22.15-.07.07-.07.66-.3.15-.07.15-.08.44-.29.51-.29.23-.08.22-.15.44-.29.07-.07L5,103.5h.07l.08-.08h.07l.07-.15.08.08h.22l.51-.3.23-.14.14-.15.15-.15h.22l.15-.14.07-.08.22-.07.08-.08.44-.36h.07l.44-.37.15-.08.29-.22.08-.07.07-.07.37-.08.15-.07.14-.08.15-.14.22-.22.22-.23.08-.07.14-.07.08-.22v-.23l.07-.21.07-.14v-.08h.07l.08.08h.14l.08-.08.15-.07v-.08l.22-.14.14-.08.15-.07.59-.52.07-.07v-.15l.15-.22v-.07h.07v.07h.15l.08-.07.07.07v.08h.44l.07-.15h.08l.07-.22.08-.08.22-.07h.07l.22-.07h.08l.07-.15h.44l.08-.07.07-.08.07-.22.22-.15h.15l.15-.07.15-.22h.14v-.08l.08.15.07-.07h.07l.15-.22h.08v.14l.14-.07.15-.07.37-.15.14-.08.23-.07.07.07.07-.07.22-.22.08.07.07.08h.15l.15-.08.14-.07.15.07.15-.07.22-.29.07-.08v-.07l.08-.15.14-.51v-.15l.08-.15.07-.07.08.07.07-.15.07-.22v-.07l.15-.07.07-.08v-.15l.08-.14.15-.15.14-.15H20l.14-.29h.15l.07-.07.15-.23.08-.14h.29l.15-.15v-.74l.07-.14v-.15l.22-.15.08-.14v-.15l.07-.22.07-.08h.08l.37-.22.14.08.15-.15L22.3,90h.08l.29-.15.15.07.29-.07.37-.22.22-.22.08-.15H24l.22-.22.22-.15.29-.07h.08l.29-.08.07-.07h.08l.07-.07v-.08l.15-.14.15-.08h.07l.07-.15h.08l.37-.29.07-.15h.07v-.07l.15-.07.15-.15h.07l.08-.15.14-.14.15-.23v-.36L27,86.35h-.1l-.08-.23-.15-.44-.07-.22v-.37l.07-.07h.15l.08-.07v-.08l.07-.14-.22-.45h-.15l-.29-.58-.22-.37h.07v-.08L26.11,83l-.3-.44-.14-.15.07-.29v-.59l-.07-.44L25.59,81l-.07-.07-.15-.29L25,80.24l-.81-.08-.36-.44-.23-.14-.8-.52-.23-.37-.07-.81.37-.51.15-.66.22-.37L23,76l-.37-.07-.59-.22h-.14l-.81-.23v-.14l.22-.37.07-.07.08-.15.14-.37V74.2l-.07-.07V74l-.22-.14.22-.23.15-.07.14-.15.08-.14.14-.15.08-.15-.08-.22v-.15L22,72.22v-.15l-.15-.29v-.43l.08-.29.07-.29-.22-.45.07-.29.08-.15-.08-.51v-.74l-.36-.29h.14v-.08L22.87,68,23,67.9l.51-.08h.3l.51-.14.37-.08.07-.07.74-.3.59-.14.22-.08.51-.14.67-.23.22-.07.44-.22.07.07.37-.07.15-.07.22-.08H29l.89-.15.58-.22h.23v-.07l.51-.15h.22l.15.08.51-.08.08-.07h.14l.08-.08.88-.29h.15l.22-.15h.22l1-.14,1.32-.3h.45l.44-.07h.36l.45-.08h.22l.14.15h.44l.3-.07.15.07.29-.07h.22l.44-.08.3.08.36-.08h.67v.08h.22l.22.07h1.25l.07.08h1.47v.07l.15.07h.66l.37-.07h.59l.07.07.22-.07h.23l.29-.15h1.54l.3.08.37.07h.22l.07.07.37.08.51-.08.15.15.3.08.22-.08h.29l.15.15h.14l.37-.08.15-.07.22.07.07-.07.45.22.51.15.07.07h.23l.44.08.14.07h.15l.07.07h.08l.44.15.74.08h.14l.3.07.14.07h.3l.22.08.29.07h1.1l.08.15.22.07.51.22.08.08.36.14.08.08-.08.15.23.29.14.07.08.08.44.29v.08l.22.14.37.44.22.15.29.07.44.23.15.14.51.37.08.07.15.08.07.15.44.29.37.22.37.07h.59l.22-.07.14-.15.08-.07.14-.15h.08l.15-.07h.44l.29-.22.15-.08.14-.07.3-.07h.15l.22-.08.14-.07.08-.08.07-.07.15-.07.37.07.22-.07.44-.23h.07v.08h.15l.15-.08h.29l.22-.07.07.07.22-.07.22-.07.08.07.07.07.22-.07.15-.07h.29l.08.07.14.07h.3l.22-.07.15.07h.73l.08-.07h.07l.37-.07.51-.08h.37l.22.08.22-.15.08.07.07.08H75l.15-.08.29-.07.15-.15h.22v.08l.14.07h.23l.22-.07.14.07h.08l.07-.07.08-.08.07.08H77l.15.07.07.07.37.08h.08l.14.07.15-.07.07.07.08.08h.07l.22.07h.22v.15l.08.07H79.9l.29-.15.08.08h.51l.08.07.07.08h.29l.22-.15.15-.07.22-.15.22-.22h.08l.37-.22.07-.08.22-.14.29.07.15.07h.15l.07-.07h.22l.22-.15H84l.29-.22.08-.07.22.07.07-.07.15.07.22-.07.29-.08h.15l.22-.07.22-.07.15-.08.29-.15h.08l.14-.14h.08l.14-.15.15-.15.15-.07.22-.22.22-.22h.07l.15-.08h.22l.15-.07.22.07h.07l.15-.07.08-.07.14-.15.22-.22.08-.15.15-.22L89.4,65l.14-.3.08-.07.07-.15L90,64l.07-.15.07-.08V63.7l.15-.15h.29l.08-.14v-.08l.29-.14h.15l.07-.08.15-.22.15-.07.07-.08.08-.07.29-.22H92l.15-.15v-.15l.07.08.15-.08.15-.07h.07l.08-.07v-.08l.14-.07.15-.08.15-.07h.14l.23-.15.07-.07h.22l.07-.08.23-.07.07-.07.07-.08.15-.07.15-.22.14-.15.15-.29.08-.08.51-.37.07.08.08-.08.22-.14.07-.15.22-.07.15-.08.15-.22.15-.07h.29l.37-.08h.14v.08l.3-.08h.07l.15.08.22.14.07.15.23.08h.29l.15.07.29-.07h.07l.23-.08.14.15.08-.08.14.08.12-.07.22-.07.14-.22.08.07.14-.07.15-.08.15-.07.37-.07.14-.08h.15l.22-.14.22-.3v-.15l.08-.07.22-.51.14-.59.15-1v-.52l.08-1.25v-.59l-.15-.66v-.66l-.15-.81v-.07L102,50.53v-.15l-.07-.29-.22-1-.15-.59-.22-.29V48l.07-.22v-.07l-.22.22H101l-.07-.08.15-.07-.15-.22h-.15l-.22.07-.07-.07-.15.07v-.15l.08-.22.07-.07-.07-.07h-.15l-.15-.15-.14.07-.23.08h-.22l.15-.44-.07-.08v-.15l.22-.36.07-.15.22-.22.08-.08h.07l.22-.14.15-.08h.22l.66-.22.08-.07h.07l.07-.08V45l.22-.29.08.14-.15.15-.07.07-.15.45-.15.14-.22.44.08.08.22-.15.14.07.15.08v.15H102l.07.14v.08h.15l.07-.08v-.07l-.07-.22v-.08l.29-.22.3-.29.22-.15h.14v-.07l.3-.15.15-.15.14.08.37-.15.15-.22.07-.22v-.08l-.07-.07.07-.22-.07-.15.07-.14-.15-.23v-.22l-.07-.07h-.07l-.08-.22.15-.22.15-.15h.22l.22-.15.07-.07v-.07l.22-.37.22-.22.3-.15h.22l.07.22h.08l.29-.15-.07-.14.07-.3-.07-.07h-.3v-.15l-.07-.07-.07-.08h-.23l-.44.37-.66.59-.29.22h-.3l-.14.08-.22.14h-.3v-.07l-.15-.15.08-.07.07-.15-.14-.15h-.08l-.22.15h-.15l-.22.15-.07-.08.07-.07-.07-.15h-.15v-.29l.15-.29.37-.37.22-.07.29-.15h.3l.29-.15.51-.44.23-.44v-.22h-.23l-.14-.07-.15.07-.29.29h-.22l-.3-.07.08-.07.44-.44.07-.37-.07-.15v-.07l-.15-.15-.22.07-.08-.07H103l-.14.15-.15.07-.07-.07-.3.07-.15.15-.07-.08H102l-.07-.07v-.07l.22-.37.15-.3V37.8l-.37.37-.07.07-.08.08-.22.07h-.15l-.22.07-.07.08-.07-.08-.08-.07-.14.15-.3.29v.22l-.22.22-.15.37v.22L100,40v.22h.15l.29-.07.29-.15.15-.08.22-.07.3-.15h.81v.08l.07.07-.15.3-.44.66v.29l-.44.59-.44.44-.07.08-.15-.08-.22.08-.15.14-.22.08-.07-.08v-.22l.14-.22.15-.29.15-.22.07-.3-.15-.29h-.14v-.15l-.22-.15-.15-.07-.22.07h-.15v-.44l-.15-.14v-.08l.15-.15v-.36l.15-.07v-.23L99.52,39l.08-.22v-.15h-.52l-.59-.22v-.15l.08-.07V38.1L98.49,38l-.36.22h-.3l-.07-.07.07-.15.37-.37.07-.07-.07-.15-.07-.07-.37.22.14-.22-.14-.08.14-.15L97.83,37l-.22.07L97.54,37v-.14l.14-.29.3-.22.22-.22h-.08l-.22-.37.08-.07,1.17-2.5.67-.15H101l1-.44.15-.08.29-.14.74-.74.07-1.62.89-.59.07.08h.29l.15-.15.37-.07.74-.59.73-.66,1-.45.22-.14h.59l.08.07h.07v.08h.07l.59-.23.3-.22.22-.22.22-.29h.29l1.1-1,.3-.37,1.1-1.1.22-1.1.14-.44,1.1-1.69.81-.74.3-.29.81-1,1-.89v-.07h0l1.16-1,.22-.22.81-1,1.62-1.76.36-.37.08-.07.15-.08L122,13l.07-.07.52-.52.37-.37.59-.51.29-.59.44-.07.22-.3.52-.07v-.22l.66-.81.29.07.74-.66.15-.07-.15-.45.66-.44.37-.29.37-.07.29-.23.07-.14.37-.08.3-.36h.36l.3-.15.14-.08.59-.36.74-.15V5.81l.15-.59.44-.22.36.08.23-.3.8-.14.15-.22.88-.45.37-.29.22-.22.15-.29V2.94l.22-.22.52-.22.73-.07h.22l.81.07.22-.37.37-.29.3-.07h.29l.07-.15h.15l.29-.22.15-.08.15-.07.22-.07.29.14.08-.07.37-.07v.14l.22.3.81-.08.07.37.07.07.37.15.37-.07.15-.15.07-.15.59-.22.51.15h.15l.15-.07.07-.15.22.22h6.48l1.47.07h1l2.5-.07h1.1l1.54-.07,3.24-.23,1.91-.22L165.79,1,167.41,1l.08-.07L168.81.8l2.43-.07h.95L174.4.51l1.1-.07,1.84-.15h.44L179.1.21l.52-.07h.74l-.15.44-.08.15-.07.15v.29l.07.15.08.14.15.22.14.15v.08l.08.14-.08.66.08.74v.29l-.08.08-.14.15-.15.14-.08.15-.07.07v.15L180,4.7v.15l-.08.51-.07.37-.07.15-.08.07-.14.15v.44l.07.29.07.08.15.15.07.07V7.2l.08.08.22.07.07.08.08.07.07.15.29.22.15.22v.15l.08.44v.14l-.08.08-.22.29-.07.08v.22l-.08.29-.07.15V10l-.07.15-.23.22v.81l.08,1v.15h.07v.08l-.07.29-.15.07.07.08v.07l.08.08-.15.07v.29l.07.15v.15H180v.07l-.08.08V14l-.07.14-.07.08v.07l.14.15-.22.22v.07l.08.08-.08.22v.07l-.07.22v.08l.22.14.07.3.15.22v.15l-.07.07-.08.15.15.14v.15l.07.22.22.37.15.15h.07v.07l.08.08.07.07.15.07.14.08.15.14v.23l.22.29v.15l.08.07.14.07.08.08v.44l.07.07.22.15.15.29.07.3v.29l.15.3v.22l.07.29-.07.37.15.29.07.22v.15l-.07.37-.3,1-.07.29-.07.29-.08.08-.07.14-.22.23-.08.14-.07.37v.29l.22.45.07.07v.15l.08.22v.88l.07.29.22.59.08.3.07.22v.29l-.07.08-.08.22-.07.37-.08.22-.14-.08-.08.08-.07.07-.07.07-.15.08v.15l-.08.07-.14.07v.22l-.08.08h-.07l.07.15-.07.14-.15.22v.08l-.22.14-.07.08-.08.15h-.07l0,.05-.08.15v.07h-.07l-.08.08v.44l-.14.15v.36l-.08.15v.37l-.07.22v.07l-.15.23-.07.07-.15.15v.07l.08.22.07.3.07.22h-.07V35l-.07.37-.15.22-.22.59v.59l-.15.74v.07l.22.15h.08v.07l.14.15h.08l.14.14.08.08.14.22.08.15v.22l-.15.95v.44l.15.3.07.73-.07.59.07.15.07.22.08.22.15.44.07.15.37.44.22.37V44l-.08.44-.07.15v.29l.22.15.08.07v.08l-.08.07-.07.15-.15.07-.15.22-.07.08-.07.29.07.08v.14l.22.15.07.07.08.08v.07l.07.22v.08l.22.22.22.07.15.22.08.22v.08l.14.22V48l-.14.22-.23.44-.14.37v.74l-.22.29-.15.15-.07.07-.15.3v.22l-.08.07-.07.08-.07.07-.08.07-.07.08.07.15v.14l-.07.3v.14l-.22.44v.23l-.08.22-.14.07V53l-.08.08v.29l.3.44v.08l-.15.37.07.22v.07l-.07.22-.15.3v.14l.08.15.22.07.07.15.37.22.15.08h.14l.08-.08v-.15h.15l.07-.07V55.4l-.07-.07v-.07h.07v-.15h-.07l-.08-.08.08-.07h.07v-.31h.07v.08l.08-.08v-.07l.07-.07.08-.08v-.08l-.15-.22.07-.07.08-.22-.08-.15v-.07h.15v.07h.07l.15-.07.37.07.15-.15h.36l.15-.07h.15l.14.15h.08l.07-.15h.08l.07.07v.08l.07.51h.08l.14.15v.51l-.07.23.15.07-.08.07v.15h.3l.07.07v.08h.08l.29.07.15.15.14.15.15.29.15.15-.08.14.08.23.07.07v.07l.15.22v.15l-.07.08-.08.07v.51l.08.81V64l.07,1.47V84.08L185.3,84v.08l-.07.51.14.22-.07.15v.15l-.07.14-.08.08.52,2.13H186l-.15.81-.07.15L185,91.87l-.14.59-.74,3-.15.59-.14.59-.74,3.16V100l-.15.51-.07.3-.22,1-.22,1.1-.08.15v.22l-.44,1.77V105l-.29,1.18-.44,1.84-.36,1.69-.15.74L180.3,112l-.29,1.18.14.59.22.81.3-.07v1.91l-.08,1.62v1.47l-.07,1.1V122l-.07,1.33v1.25l-.08,1.25v.73l-.07,1.7v2.94l-.07,1.91-.08.66v1.4l-.07.74v2.5l-.07,1.1v.59l-.08.07v1l-.07,1.25v1.33l.07.14.22.3.52.73.14.3h.08l.44.73.59.89v.07l-.37.22-.22.15-.15.07-.07.08H181l-.59.44-.52.37-.29.14-.66.44-.3.15-.51.37-.37.22-.15.07v.08l-.22.07-.59.37-.22.15-.74.51-.95.66.15.23.22.22.29.51.37.59.15.22.07.07.22.37.15.15.07.22.07.07.15.15.15.22v.08l.07.07.08.15h.07l-.07.07v.22h-.08v.37l.08.15-.08.14.08.08.07.07v.22l-.07.08v.22l-.08.07v.08H177l-.15.07h-.15l-.14.07v.15l-.08.44-.14.15h-.15l-.07.15-.08.07.08-.37v-.14l-.08.07-.07.15-.15.29-.07-.07v-.15l-.15.07h-.07l-.15.08V158l-.22.14-.15.3-.07-.15-.08-.15h-.14v.44h-.08v.08l-.22.07-.07.08-.15.22-.07.14-.08.22-.29.37-.07.08-.08.14-.07.15.07.15v.07l-.07.15h-.15l-.07.22.07.07.07.08V161l.15.07v.08l.08.07v.44h-.08v-.07l-.07-.15-.08-.07-.07-.08.07-.22-.07-.14h-.07l-.08.14-.07.15h-.08l-.07-.15v-.22l-.07-.07h-.08l-.07.07V161h-.15v.15l.08.07.07.07-.07.3V162l.07.07v.07l.15-.07v.07l.07.15.07.15h.08l.07.07-.15.15.08.07h.15l.14.08.15.22.15.22v.07l.07-.14.07.07.23.29-.15.08.15.14.07.08v.07l.07.08v.07l.08.07v.08h.07l.08.07.07-.14h.07l-.07-.08v-.22l.07-.07-.07-.15v-.52l-.15-.14-.14-.15v-.07l-.08-.08h.08l.29-.37-.07-.22v-.14l-.08-.15.08-.15.07-.07.07.15.08.07h.14l.08.22h.22l.07.15h.22l.15.29.07.15h.15v.07l.08-.14v-.08H176v-.59l-.07-.07h-.08l-.07-.22-.3.07v.08l-.14.07-.08-.15v-.22l-.22-.22v-.07l.15-.08.15-.22-.08-.15-.07-.14.07-.08.22.08.08-.08.14-.14,1.1.51.08.15.07.15.15.22.22.29.15.22h.14l-.07-.15v-.07l-.07-.07V161l.14-.07v-.08l-.07-.07-.08-.07v-.22h-.07v-.59l.22-.22.15-.3.07-.22.15-.07V159l.22.15h.29l.08-.08V159h.15v-.07l.07.07h.15v-.07l.07-.08.07-.07.08-.08h.29l.15-.07h.07l.15-.15.15-.07.22.15.29.14.3-.14.22-.08.07-.07v-.08l.15-.07.07.15.15.07.07.07.08.08h.07v.29h-.22l-.07.22-.08.22.08.15h-.08l-.15.08h-.22v-.23l.15-.07.15-.22v-.44l-.15-.08v.08H181l-.08.07-.07.08-.08.07h-.29v.37l.07.22-.07.15.15.07v.07l.07.15h.44l.15.15.22-.08h.15l.07.08.08-.08-.08-.07v-.07l-.15-.37.08-.07v-.15l.29-.08h.15l.07.23.08.22-.08.07.08.07.07.15.07.07.23.08.22.22.14-.07V160l-.22-.15-.07-.22v-.44l-.07-.15-.08-.07-.22-.37-.07-.29h-.08l-.07-.15-.15-.07v-.3l.08-.29v-.15l.22-.22.22.15.14.07.3.07.07.08h.74v.07l.15.15.07.22v.22l-.15.15v.22h.08l.14.07.37.08.3-.08h.07l.15-.14.14.07.15.07.07.08.15.07.07-.14v-.23l.08-.07.07.07.08.08"/></g></g></g></g><g id="Group_3269" data-name="Group 3269"><path id="Path_3731" data-name="Path 3731" class="cls-2" d="M129.64,83.53h0l0,0Z"/><path id="Path_3732" data-name="Path 3732" class="cls-2" d="M129.64,83.53h0l0,0Z"/><rect id="Rectangle_275" data-name="Rectangle 275" class="cls-2" x="129.59" y="83.63" width="0.03" height="0.03"/><rect id="Rectangle_276" data-name="Rectangle 276" class="cls-2" x="129.59" y="83.63" width="0.03" height="0.03"/><path id="Path_3735" data-name="Path 3735" class="cls-2" d="M129.61,83.05h0v0h0v0Z"/><path id="Path_3736" data-name="Path 3736" class="cls-2" d="M129.59,83.05v0h0v0Z"/></g><g id="Group_3968" data-name="Group 3968"><path id="Path_2699" data-name="Path 2699" class="cls-3" d="M99.92,105.93v-.1h0v-.12h0v0h0v-.1l0,0v-.17l0,0v-.07h0v-.13h0v-.07h0V105h0v0h0v-.05h0l0,0h0v-.07l0,0v-.07h0v-.08h0v0h0v0h0v0h0v0h0v0h0v-.08h0v-.07h0l0,0,0,0v0l0,0v0l0,0v0h0V104h0v0h0v0h0v0h0v-.17l0,0v0l0,0v-.07h0v0h0v-.1h-.05l0,0h0v0h0v0h-.08v0h0v0l0,0h0v0h0l0,0v0h0v0h0v0h0v0h0v0h0v0h0v0l0,0v0h-.1V103h0l0,0h0v0h-.1l-.08,0h0v0h0l0,0h0v-.08l0,0v0h-.1v0l0,0h-.13v0h0v0h0v0h0v0h-.08v0h-.05v0h0v0h-.08l0,0h0v-.07h0v0h0v0h0v0h0v0h0v-.12h0v-.08l0,0v-.08h0v0h0v-.11h0V102h0v0h0v-.08h0v0h0v0l0,0h0v0h.13l.51,0,.53,0h.13l.33,0h.43l.13,0h.64l.23,0h.56l.2,0h.46l.28,0h.28l0,.25v.08h.15v.4h0l0,.3,0,.1v.05h0l0,0V103l0,.27h.22v.4H104v.13l0,.2v0h0l0,.05v.35h-.21v.43H104v.3h.18v.36l.15,0v.3l.08,0v.4h-.23v.25h.15v.1l0,.25h.2l0,0h.13l0,.27h.09l0,.28h.05l0,.28h-.28l-.21,0V108h.18v.22h.1v.15l0,.23.06,0v.17h.1v.48h-.06v0l0,.21h-.13v.3h0v.48h-.07v.07l0,0v.15l-.43,0-.46,0v0l0,0v.31l0,.3,0,.33v.3l0,.4,0,.2v.08l0,.43,0,.5h0l0,.45h-.08v.23l0,0,0,.33,0,.4v.33l0,0v.12l0,.2,0,.23V116l0,.07v.05l0,.28v.18l0,0,0,0,0,0v1.2H103l-.08,0-.2,0-.51,0h-1.55l-.35,0H94.09l-.46,0H92.46l-.15,0H90.7v0h0v-.18l0,0v0h0v0l0,0,0,0v0h0v0h0v-.05l0,0,.08-.2v0l0-.08,0,0,0-.07,0,0,.08-.2.07-.26,0-.07.15-.43,0,0v-.06l0,0-.15-.55,0-.13,0-.08-.05-.22,0-.13,0-.25v0l0-.1v-.1l0-.4,0-.43,0-.15v-.11l0-.22v-.05l-.1-.18.16,0h0v0h0l0,0,0,0h0v-.06h0v0h0v0l0,0v0h0v0l0,0v-.07h0v0l0,0,0,0v0h0V112h-.05l0,0,0,0v0l0,0v-.08h0v0h0v0l0,0h.58l.18,0v-.85l0-.43V108l0-.25,0-.45v-.13l0-.43H92l0,0h1.14l0,.23v.48h1l.07,0h.69v-.63l0-.4v-1.19h.35l.1,0h0l.12,0h1.33v.41l.1,0h.84l.1,0h.81v.45h1.15v0l0,0V106h0Zm-.46-10.87,0-.25v-.28l0-.35v-.43l0-.3v-.4l0-.13v-.2l0-.35V92l0-.2v-.1l0-.6v0l0-.47v-.21l0-.27V90l0-.56,0-.57,0-.18v-.2l0-.37V88l0-.35v-.12l0-.28h.26l.13,0h.25l.1,0H100l.15,0h.23l.51,0h0l.51,0h.26l.25,0h0l.18,0h.09l.24,0h.21l.2,0h.28l.18,0h.2l.13,0h.1l0,0,.43,0,.44,0h.15v0h0l.17,0,.33,0h.34l.09,0h.28l.18,0,.38,0,.21,0h.38l.13,0,.28,0,.58,0h.16l.15,0,.41,0h0l.28,0h.1l0,0h.28l.23,0,.26,0,.13,0,0,.33,0,.3,0,.08v.3l0,.15v.13l0,.12V88l0,.45v.28l0,.3v.08l0,0v.25l0,.2,0,.5,0,.2v.13l0,.55v.13l.05.55v.08l0,.27v.08l0,.35v.05l0,.13V93l0,0,0,.4,0,.38v.27l0,.38,0,.38V95l0,.35v.13l0,.3,0,.33,0,.13v.17l0,.58V97l0,.38,0,.13,0,.4v.18l0,.23v.15l0,.15v.25l0,.18v.07l0,.36v.35l0,0v.33l0,.1v.32l0,.1v.28h0v.25l0,0H111l-.07,0h-.26l0,0h-.33l-.18,0h-.05l-.15,0h0l-.21,0h-.15l-.25,0h-.39l0,0h-.18l-.28,0h-.3l-.1,0h-.31l-.15,0h-.23l-.38,0h-.26v-.07l0,0v0l0,0h0l-.54,0h-.17l0,0h-.62l-.4,0h-.39l0,0h-.68l-.08,0h-.46l-.28,0h-.46l-.2,0h-.56l-.23,0h-.64l-.13,0h-.43l-.33,0h-.13v-.08l0-.3v-.2l0-.38v-.25l0-.35V100l0-.3v-.35l0-.25v-.18l0-.35v-.18l0-.5v-.18l0-.07v-.38l0-.45v-.26l0,0v-.6l0-.31v-.15l0-.12v-.26Zm10.28,22.82h-3.46l-.26,0h-1.78V116.7l0,0,0,0,0,0v-.18l0-.27v-.05l0-.08v-.22l0-.23,0-.2v-.13l0,0v-.33l0-.4,0-.33,0,0v-.22h.07l0-.46h-.05l0-.5,0-.43v-.07l0-.2,0-.41v-.3l0-.33,0-.3v-.3l0,0v0l.45,0,.44,0v-.15l0,0v-.07h.08v-.48h0v-.3h.12l0-.2v0h.05v-.48h-.1v-.17l0,0,0-.22v-.16h-.1V108h-.17v-.3l.2,0H105l0-.28h-.05l0-.27h-.1l0-.28h-.12l0,0h-.22l0-.26v-.1h-.15v-.26h.22v-.4l-.07,0v-.3l-.15,0v-.35H104v-.3h-.13v-.43h.2v-.35l0-.05h0v0l0-.21v-.12h-.08v-.4h-.23l0-.28v-.28l0,0h0v-.05l0-.1,0-.3h-.06v-.41h-.15v-.07l0-.25h.18l.07,0h.69l0,0h.38l.41,0h.61l.05,0h.18l.54,0h0l0,0v0l0,0v.08h.25l.38,0h.23l.16,0h.3l.1,0h.31l.28,0h.17l0,0h.38l.25,0h.16l.2,0h0l.15,0h.06l.17,0h.34l0,0H111l.08,0h.28l0,0v0l0,0v.12l0,.48,0,.08v.15l0,.07,0,.23v.08l0,.12,0,.08,0,.15,0,.3.07.45v.1l0,.06v.05l0,.2v.08l0,0v.17l0,.25v.13l0,.07v.11l0,.47,0,.23v0l0,.15,0,.25,0,.36,0,.35v.07l0,0V107l0,.33v.15l.06.15,0,0,.08.2,0,.1,0,.06v0l0,0v0h0v0h0v0h.09v0h.08l0,0v0h.05v0h.12v0h.06v0h.35l.33,0h1.78l.13,0h.33V108H116l0,0h1l.12,0h.77l.2,0h.08l0,.26v.4l0,0v1.11l0,.18V110H120l.4,0h2.15l.26,0h1.93v2l0,.32v2.34l0,.18v.47l0,.05v.13l0,0v.12l0,.08v.07l.05.15v0l0,0v.08l0,0,0,0,0,.05,0,0,0,0,0,0,.07.1,0,.07v0l0,0,0,0,0,0,0,.1,0,.13,0,.2,0,.05.06.07v0l0,.05,0,0,.07,0,.1.12h.08l.08,0h0l0,0,0,0,0,0,.08,0h0l0,0h.15l.08,0,0,0,.08,0,0-.08.05,0h0l0,0,0,0,0,0,0,.07,0,0v.13l0,0,0,0h0l-.4,0h-.92l-.41,0h-1.75l-.18,0h-1.17l-.26,0H120l-.1,0h-1.3l-.36,0h-.48l-.49,0h-1.06l-.49,0h-1l-.13,0h-.1l-.25,0-.46,0-.13,0-.3,0h-.92l-.38,0h-1.27l0,0h-1Zm15.31-20.4h0v0h.05v.13h0v0l0,0h0v0h0v0h0v.08h0l0,0,0,0v0h.07v.08l0,0h-.06v0h0v0l0,0v0l0,0,0,0v.18l0,0v0l0,0v.13h0v0l0,0,0,0,0,0v.05h0v0h0l0,0,0,0v.06h0v0h0v0h0l0,0h0v0l0,0v0l0,0v.05h0v0l0,0h0v.08h0V99l0,.08v0l0,0v.23h0v0h.08l0,0h0v0l0,0v0l0,0v0l0,0v0l0,0v0l0,.07,0,0v0l0,0,0,.05,0,0,0,0V100h0v.47l0,0,0,0v0l0,0,0,0v0l0,0,0,0h0v0h0l0,0h0v.07l0,0h0v.1h0v0h0v0h0v0h0v0h0v0h0v0h0l0,0h0v-.05h0v.05h0v.17l0,0h0l0,0,0,0h0v.06h0v.07l0,0h0l0,0h0l0,0h0l0,0h0l0,0h-.1l0,0,0,0v0l0,0v0h0v0l0,0v0h0l0,0h0v0h0l0,0,0,0,0,0v0h0v.1h0l0,0v0h0v0l0,0v0l0,0v.13h0v0h0v0l0,0,0,0v.15h0v0h0v0h0v0h0v.08l0,.07v0h0v0l0,0v0h0l0,0,0,0v.08h0v0l0,0h0l0,0h.08v0l0,0v.07l0,0v.07h0v0l0,0-.08,0v0h-.08v0h0V104h0v0l0,0v0l0,0,0,0v0h0v.2l0,0,0,0,0,0h0l0,0h0l-.05,0,0,0v0h0v.08h0v0h0v0l0,0-.06.06h0v.07l0,0h0l0,0v0l0,0v0l0,0v0h0v0h0l0,0,0,0h0l0,0h0v0l0,0v0l0,0v.08l0,0h0v0l0,.35v.08l0,.1v1.73l0,.05v.2h0v.05l0,0v0l0,.07,0,0,0,0v.1l0,.46v1.38h-1.93l-.26,0h-2.14l-.41,0h-1.78v-.15l0-.18v-1.1l0,0v-.4l0-.25h-.08l-.2,0h-.77l-.13,0H116l0,0h-.36v-.07h-.33l-.13,0h-1.78l-.33,0h-.36v0h0v0h-.13v0h-.05v0l0,0h-.08v0h-.1v0h0v0h0v0l0,0v0l0,0,0-.1-.08-.2,0,0,0-.15v-.15l0-.33v-.15l0,0v-.08l0-.35,0-.35,0-.26,0-.15v-.05l0-.22,0-.48v-.1l0-.08v-.12l0-.26v-.17l0,0v-.07l0-.2v-.05l0-.06v-.1l-.08-.45,0-.29,0-.16,0-.07,0-.13v-.07l0-.23,0-.07V102l0-.07,0-.48v-.12l0,0v-.28h0v-.27l0-.1v-.33l0-.1v-.33l0,0v-.35l0-.35v-.08l0-.18v-.25l0-.15v-.15l0-.23V98l0-.41,0-.12,0-.38V97l0-.57v-.18l0-.13,0-.33,0-.3v-.12l0-.36v-.17l0-.38,0-.38v-.27l0-.38,0-.4,0,0v-.28l0-.13v-.05l0-.35v-.07l0-.28v-.07l-.05-.55V91l0-.55v-.13l0-.2,0-.5,0-.2V89.2l0,0v-.07h.23l.05,0h.18l.15,0,.54,0h.07l.26,0h.28v0h.25l0,0h.17l.16,0h.07l.13,0h.13l.2,0h.13l0,0h.28l.21,0h.15l.33,0,.13,0h.21l.2,0h.23l0,0h.16l.2,0h.23l.28,0,.28,0h.2l.06,0H117l0,0h.28l.15,0h.08l.2,0H118l.36,0h.51l0,0h.26l.35,0,.31,0h.13l.33,0h.25l0,0h.25l.13,0h.31l0,0h.07l.31,0,.38,0h.15v0h.21l.51-.06.46,0h.12v0h.18l.21,0H124l.13,0,0,0v.26l.56-.06h.3l.23,0h.1l.38,0h.1l0,0h0l.26,0,.45,0,.18,0H127l.1,0h.08l.18,0h.25v0h0l.31,0h.07v0l0,0,0,0v0l0,0v0h0v0l0,0,0,0,0,0v0h0v0l0,0v.1h0v0H128l0,0v.05h0v0h0v0H128v0h.05v0l0,0h0v.05h0v.13h0v0h0V89h0v0h0v0H128v0h0v0l0,0v0h0v0h0v.08h0v0h0v0m0,0h0l0,0v0h0v0l0,0,0,0v0h0v0l0,0v.05l0,0v.08l0,0,0,.07v.05h0v0h0V90l0,0v.07l0,0v.12l0,0h0v0h0v0h0v0l0,0h0v0h0v0h0l0,0h0v0h0l0,0v0h-.08v0h0l0,0v0l0,0v.08h0v0h0v0h0v0h0l0,0,0,0v0l0,0v0h0v0l0,0,0,0h0v0h0v0h-.08v.25h0v0l0,0h0v0h0v0h0l0,0v.07l.06,0,0,.05v0l0,0v0h0v.08h0v0h0v0l0,0,0,0v0h0v.1h.08V92h0v0h0v0l0,0v0h0v0l0,0v0l0,0v0h0v.18h0v0h0v0l0,0v0h0v0h0v.1h0l0,0,0,0h0v0h0l0,0v0h0l0,0,0,0h0v0l0,0v0h0v0h0V93h-.05v0h0v0h-.06l0,0v.05h0v0l-.1,0h0l0,0,0,0v0h0v.22l0,.05,0,.06v.17l0,0h0V94h0V94l0,0v0h0l0,0h0v0h0v0h0v0h0v0h0v0h.1v0h0v0l0,0v.1h0l0,0v0h0v0l0,.08v0h.08v0h0v0h0v0h0v0h0v0l0,0h-.07v.05h0v0h0v0h0l0,0,0,0,0,0h0V95h0v0h0v0h0v0H127v0h0v0h-.1v0l0,0h0v0l0,0h0v0l0,0h-.05v0h-.23v0h-.05v0h0v0l0,0h0v0h0v0h0l0,0v0h0v0h0v0l0,0h0v0l0,0v0l0,0h-.08v0h0v0l0,0,0,0v0h0l0,0v0H126v0h0v.08l0,0V96h0v0H126v.13l0,0v0l0,0,0,0v.08h0v0l0,0h-.13v0l0,0v0l0,0h-.05l0,0h0l0,0v.13l0,.08v0h0l-.08.08v.07h0l0,0v.12l0,0v.05h0v0h0v0l0,0v.13l0,0h-.08v0h-.08l0,0h-.1l-.05,0h0v0h0v0h0v.08h0m-.26,7.47h0l0,0h0l0,0,0,0h0v0h0v0l0,0v0l0,0v0l0,0h0l0,0v-.08h0l.06,0,0,0v0h0v0h0v-.08h0v0l0,0,.05,0h0l0,0h0l0,0,0,0,0,0v-.2h0v0l0,0,0,0v0l0,0v0h0v-.15h0v0h.08v0l.08,0,0,0v0h0v-.07l0,0v-.07l0,0v0h-.08l0,0h0l0,0v0h0v-.08l0,0,0,0h0v0l0,0v0h0v0l0-.08V103h0v0h0v0h0v0h0v-.15l0,0,0,0v0h0v0h0v-.13l0,0v0l0,0v0h0v0l0,0h0v-.1h0v0l0,0,0,0,0-.06h0v0h0l0,0h0v0l0,0v0h0v0l0,0v0l0,0,0,0h.1l0,0h0l0,0h0l0,0h.06l0,0h0l0,0v-.07h0v-.06h0l0,0,0,0h0l0,0v-.17h0v-.05h0v.05h0l0,0h0v0h0v0h0v0h0v0h0v0h0v0h0v-.1h0l0,0v-.07h0l0,0h0v0h0l0,0,0,0v0l0,0,0,0v0l0,0,0,0V100h0v0l0,0,0,0,0-.05,0,0v0l0,0,0-.08v0l0,0v0l0,0v0l0,0v0l0,0v0h0l0,0h-.08v0h0v-.23l0,0v0l0-.08v-.07h0v-.08h0l0,0v0h0v-.05l0,0v0l0,0v0h0l0,0h0v0h0v0h0v0l0,0,0,0h0v0h0v-.05l0,0,0,0,0,0v0h0v-.13l0,0v0l0,0V98l0,0,0,0v0l0,0v0h0v0h0l0,0v-.07h-.08v0l0,0,0,0h0v-.07h0v0h0v0h0l0,0v0h0v-.13h-.05v0h0V97.4h0v0h0v0h0l.05,0h.1l0,0h.08v0h.08l0,0v-.12l0,0v0h0v0h0V97.1l0,0V97l0,0h0v-.07l.08-.08h0v0l0-.08v-.13l0,0h0l0,0h.05l0,0v0l0,0v0h.13l0,0v0h0v-.08l0,0,0,0v0l0,0V96H126v0h0v-.15l0,0v-.07h0v0h.08v0l0,0h0v0l0,0,0,0v0h0v0h.08l0,0v0l0,0v0h0l0,0v0h0v0h0v0l0,0h0v0h0v0h0l0,0v0h0v0h.05v0h.23v0h.05l0,0v0h0l0,0v0h0l0,0v0h.1v0h0v0h.1v0h0v0h0v0h0v-.1h0l0,0,0,0,0,0h0v0h0v0h0v0h.08l0,0v0h0v0h0v-.05h0v0h0v0h-.08v0l0-.08v0h0v0l0,0h0v-.1l0,0v0h0v0h-.1v0h0v0h0v0h0v0h0v0h0l0,0h0v0l0,0V94h0v-.07h0l0,0v-.17l0-.05,0,0v-.23h0v0l0,0,0,0h0l.1,0v0h0v0l0,0h0v0h0v0h.05v-.08h0v0h0v0l0,0v0h0l0,0,0,0h0v0l0,0h0v0h0l0,0,0,0h0v-.1h0v0h0v0l0,0v0h0v0h0v-.18h0v-.05l0,0v0l0,0v0h0V92.1l0,0v0h0v0h0v-.1h-.07v-.1h0v0l0,0,0,0v0h0v0h0v-.08h0v0l0,0v0l0,0,0,0v-.08l0,0h0v0h0v0h0l0,0v0h0V91h.08v0h0v0h0l0,0,0,0v0h0v0l0,0v0l0,0,0,0h0v0h0v0h0v0h0v-.07l0,0v0l0,0h0v0h.07v0l.06,0h0v0h0l0,0h0v0h0v0h0l0,0v0h0v0h0v0h0l0,0v-.13l0,0V90l0,0v-.08h0v0h0v-.05l0-.07,0,0v-.08l0,0v0l0-.06v0h0v0l0,0,0,0v0h0v0l0,0h0v0h0v0h0v-.07h0v0h0v0l0,0v0h0v0h.05v0h0v0h0V89h0v0h0v-.13h0v-.05h0l0,0v0h0v0H128v0h0v0h0v-.05l0,0h.05v0h0v-.1l0,0v0h0v0l0,0,0,0,0,0v0h0v0l0,0v0l0,0,0,0v0h0V88l.05-.08,0,0h0v-.08l0,0,0,0,0,0h0v0h0v0h0v.05h0v0h0v0h.05v0h0v0l0,0v0h.05v-.21h0l0,0v0l0,0v0h0v0h0v0l0,0h0l0,0,0,0v0l0,0m0,0v0l-.05,0v0h.05v0l0,0v0h0v-.07h0v0h0v0l.08-.06,0,0h0v0h0v0l0,0h0v0h0v-.07l0,0v.08h0l0,0h0v0h0v0h0v-.07h0v0h0v0l0,0h.08v0l0,0h0v0h0l0,0h.07l0,0h0v0h0v0l0,0v-.05h0v0h0v-.07h0v-.05l0,0v0h.05v0l0,0,0,0v0h0v0h0v0h.05v0h0v0h-.05v0h0v0h.05v0h0v0h0v0h0v-.05h0v0l0,0v0h0l0,0h0v0h0v0h0v-.2l0,0v0l0,0v0h.07v0h0v0l0,0v0h0v0h0v0h0v0h0v0l0,0v0h0V85.1l0,0h0v0l0,0,0,0h0v0h0v0h0v0h0v-.05l0,0v0l0,0v0l0,0,0,0v0h0V84.6h.07v0h.05v0h0l0,0v0h0v0l0,0h.05v0h0v0h0v0h0v-.05h0v0h-.07v-.17h0V84.1h0v0h0v0h0v0h-.08v0h0v0h0v0h0v0h0v0h0v0h-.06v0h0v0h0v0h0v0h0v-.05h.05v0h0v-.05h0v0l0,0v-.07h-.05v0h0v0h0v0h0v0h0v0h0v-.07h0v0h0v0h0v0h0v-.06h-.05v0h-.06v0h.06v-.05h0v0h0v0h0v-.07h0v0h0v0h0v0h0V83h0v0h0v0h0v0h0v0h0v0h0v0h0v0h0v0h0l.28,0h0l.05,0,.21,0,.25,0h.05v.21l0,.3,0,.4v0h0l.18,0h.09l.49,0,.2,0,.46,0,.46-.06h.18l0,0,0,0v0l.15-.25.13-.27h0l.08-.16.08-.1v0l0-.05v0l0,0v0l0,0,0,0,0,0v0l.07-.13.23-.4.1-.15.05-.13.1,0,.49.28.12,0,.08,0,.28.15.1,0,.36.2.3.15.26.15.2.1.08,0,0,0,.25.12.1.06.15.1.1,0h0l.1.07.07,0,.08,0,.13.07h0l0,0h.05l0,0v0l0,0,0,0,.05,0h0l.18.1.25.16.2.12.49.25.35.2.13.11.08,0,0,0,.18.1.18.1,0,0,0,0,.18-.15,0,0,.2-.15,0-.33.06-.25v-.15l.07-.48v0l.05-.28v-.12l0-.23v-.1l0-.13,0-.3,0-.18.13,0,.15,0,.15.08h0l0,0,.16,0,.23.07.2.08.3.12.08,0,.23.07.2.08.16.07.22.08.06,0h0l.15.07.16,0,.2.1h0l.28.1.28.13.35.12.08,0,.33.13.2.07.1,0,.54.2.22.07.31.13.08,0h0l.1.06.43.15.08.05.36.12.17.05v0h.06l-.08.2v0l-.13.4-.1.38,0,0v0l-.1.33,0,0v0l0,0v.43l0,.07v.5l0,0v0l0,.5v0l0,.1,0,.1v0l0,.05v0l0,0v.1l.1.28,0,.08,0,.07v0l0,.1,0,.08,0,.13,0,0v.08l0,0v.08l0,0v0l0,.1,0,.1,0,.08.08.3v.08l0,.05v0l0,0v.08l0,0v.08l0,0V90l.07.25v0l0,.1v0l0,0,0,.15,0,.1,0,.08,0,.12,0,0v0l0,.15v0l.06.2v.06l0,0v0l0,0v.15l0,.15.08.35v.1l0,0v.05l0,0-.05.08v0l0,0-.15.31,0,.05v0l0,0-.13.3-.15.3v0l-.05.05,0,.15,0,0,0,0v0l0,0,0,.05v0l-.22.48-.08.12v0l0,0v0l0,0v0h0v.05l-.13.2,0,0,0,0-.1.17-.12.23-.21.35-.05,0v0l0,0-.08.1-.08.15-.15.25,0,0,0,0v0h0v0l0,.05,0,0,0,0h0v0h0l-.05,0h-.05v0h0l-.06,0h0v0l0,0,0,0,0,0v0h0v0h0v0h0v0h-.1l0,0,0,0v0H145v0h0v.05h-.1v0h-.05v0h-.23v0h0l0,0h0v0h-.1v0h0v0h-.08v0h0v0h0v0h0l0,0h-.1v0h0v0h0v0h0v0h0v.05h-.05l0,0h0v0h-.08l0,0v0h0v0h-.05v0h0v0h-.18l-.31-.06h0l-.18,0h-.23l-.05,0h0l-.38,0-.27,0h-.21l-.1,0-.1.07-.16.07-.15.11-.46.27,0,0-.06,0,0,0-.05,0-.2.15h0l-.1.08-.05,0,0,0h0l-.07,0L140,98l-.28.18-.25.17-.28.15,0,0-.25.15,0-.28-.38,0-.41.08-.15.35-.05.08-.16.37-.15.36-.07.12-.05,0h0v0l0,0,0,0h0l0,0h0v.05l0,0v.1h0l0,0v0h-.1l0,0h0v0h-.06l0,0,0,0,0,0v-.2h0v0h-.15v0h0v0h0v0h-.2l0,0v0h0v0l0,0v0l0,0,0,.25v.13l0,.55v.08h-.23l-.13,0h-.61l-.21,0-.3.12-.31.13-.41.17-.33.31-.35.32-.23.2.1.11-.08,0-.13.12.05.08-.05,0,0,0,0,0h0l-.36.3-.13-.18-.13.1-.2.16-.23.17,0,0h0v0h0l0,0,0,0-.05,0-.07.07-.13.1-.05,0,0,0-.2.15-.23.17.05-.32,0-.08v0l0-.23v0l0-.07v-.06h0l0,0v0h0l0,0-.08,0h0l0,0H131l-.05,0h-.07l0,0,0,0v0l0,0v.13l0,0v0l0,0v0h-.05v0h-.08l0,0h0l0,0h-.13l0,0h0l0,0,0,0h0v0h-.06l0,0h-.05l0,0H130l0,0h-.08l-.07,0h0v0h0v0h0l0,0h0v0h0v0h0v0l0,0h0v0h-.1v0m0,0,0,0h0v0h-.08v0l0,0,0,0h0v0h0v0h0v0l0,0v.05l0,0v0h0l0,0h0l0,0,0,0v0h0l0,0v0l0,0,0,0v.08h0v0h0v0h0l0,0,0,0,0,0h-.05l0,0h0l0,0v0l0,0v0l0,0,0,0,0,0h-.07l0,0,0,0,0,0h-.1v0h-.05v0h0l0,0v0l0,0v0h0l0,.05v0l0,0v0h0v0h0l0,0h0l0,0,0,0h0v.1h0v.07l0,0h0v0l0,0h-.08v0h-.12l0,0h-.23l0,0h0l0,0h0l0,0,0,0,0,0h-.07l0,0,0,0,0,0,0,0,0,0h-.18l-.07,0,0,0,0,0,0,0,0,0,0,0h-.05l0,0-.15,0-.1,0,0,0,0,0,0,0h0v0h0l0,0h0l0,0-.05,0,0,0v0l0,0v0l0,0,0,0h0l0,0,0,0,0,0V105l0,0h0v0l0,0v0l0,0h0l0,0v0h0l0,0v0l0,0,0,0h0l0,0h0l0,0,0,0v0l0,0,0,0,0,0h-.21l0,0h0l0,0h0l0,0h0l0,0h0l0,0h0l0,0h0l0,0v-.08l0,0v0l0,0v0m3.16-.08h0l0,0v0h0l0,0v-.08h0v-.1h0l0,0,0,0h0l0,0h0v0h0v0l0,0v0l0,0h0v-.05l0,0v0l0,0h0v-.06h.05v0h.1l0,0,0,0,0,0h.08l0,0,0,0,0,0v0l0,0v0l0,0h0l0,0H129l0,0,0,0,0,0h0v0h0v0h0v-.07l0,0,0,0v0l0,0h0v0l0,0,0,0h0l0,0h0v0l0,0v-.05l0,0v0h0v0h0v0h0l0,0,0,0v0h.08v0h0l0,0v0h.1v0h0l0,0v0h0v0h0v0h0l0,0h0v0h0v0h0l.08,0H130l0,0h.08l0,0h.05l0,0h.05v0h0l0,0,0,0h0l0,0h.13l0,0h0l0,0h.07v0h.05v0l0,0v0l0,0v-.13l0,0v0l0,0,0,0H131l.05,0h.18l0,0h0l.08,0,0,0h0v0l0,0h0v0l0,.08v0l-.06.24v0l0,.08-.05.32.23-.17.2-.15,0,0,.05,0,.12-.1.08-.08.05,0,0,0,0,0h0v0h0l0,0,.23-.17.2-.15.13-.1.13.17.35-.3h0l0,0,0,0,0,0,0-.08.13-.12.07,0-.1-.1.23-.2.36-.33.33-.3.41-.18.3-.13.31-.12.2,0h.61l.12,0h.23v-.08l0-.55v-.13l0-.25,0,0v0l0,0v0h0v0l0,0h.2v0h0v0h0v0H137v0h0v.2l0,0,0,0,0,0h0v0h0l0,0h.1v0l0,0h0v-.1l0,0v-.06h0l0,0h0l0,0,0,0v0h0l.05,0,.07-.13.15-.35.16-.38,0-.07.15-.36.41-.07.38,0,0,.27.25-.15,0,0,.28-.15.25-.18L140,98l.08,0,.07,0h0l0,0,0,0,.1-.07h0l.2-.15,0,0,.05,0,.06,0,0,0,.46-.28.16-.11.15-.07.1-.08.1,0H142l.28,0,.38,0h0l.05,0H143l.17,0h0l.31,0h.18v0h0v0h.06v0h0v0l0,0h.08v0h0l0,0H144v0h0v0h0v0h0v0h0v0h.1l0,0h0v0h0v0h0v0h.07v0h0v0h.1v0h0l0,0h0v0h.22v0h.06v0h.1v-.05h0v0H145v0l0,0,0,0h.1v0h0v0h0v0h0v0l0,0,0,0,0,0v0h0l.05,0h0v0h.07l0,0h0v0h0l0,0,0,0,.16.2.12.15.13.16,0,.07.13.15,0,0,0,0,.1.12.2.26.21.27,0,0,0,0,0,0,.16.2,0,0,.15.23,0,0,0,0,.3.37,0,0,0,.05.28.38h0l0,0,.13.15.15.23,0,0h0v0l0,0,0,0,0,0v0l0,.07.05,0h0l.33.17.23.1.12,0,0,0,0,0,.08,0v0l.07,0,0,0,.08,0,.25.13.2.1h0l0,0,.36.18.05,0,0,0,.15,0,.08.05,0,0h.06l0,0,.05,0,.1,0,.23.1.2.1,0,0,0,0,.15,0,.23.12,0,0,.05,0,.08,0,.05,0,.13.07.51.25h0l.05,0,.21.1.2.12.18.08.08,0,.22.1h0l0,0,.15.07,0,0,.25.12-.23.43-.05.13,0,0v0h0l-.07.17,0,0-.08.15-.15.31-.18.32-.17.33-.13.28,0,0v0l-.05.1,0,0,0,0-.1.2-.1.17,0,.08-.13.25,0,0-.18.37-.2.35,0,.11-.15.3-.05.1-.1.2,0,0v0l-.08.1v0l0,0-.13.25-.15.28-.15.3-.16.28.33.15.06,0v0h0l.26.12,0,0,.05,0,.38.17.08,0,0,0,0,0h0l0,0,.28.13.2.1.1,0h0l.05,0,.1.06h0l.06,0,.25.13.13.07-.36.23-.3.17,0,0,0,0,0,0-.05,0h0v0h-.05l0,0,0,0-.15.1h0l0,0-.05,0v0h-.05l0,0h0v0h0l-.05,0-.15.07h-.26l-.45,0h-.1l-.21.35-.05,0v0l0,.07,0,0,0,0-.08.1v0l0,0,0,0-.07.1-.08.15-.38.23-.51.33-.49.32-.3.2-.31.2h0l-.08.08-.43.25,0,0,0,0H148l0,.06-.36.22-.38.25-.3.18-.23.15,0,0,0,0-.05.05h0l-.23.15-.05,0-.21.15-.25.15-.26.18-.4.25-.21.12-.05,0v0l-.41.26,0,0,0,0-.44.3-.2.13h0l0,0-.35.23-.36.22-.08.06-.17.12-.18.13h0l-.25.15-.2.12-.05.05H142l0,0-.08.05h0v0l0,0-.28.15,0,0h0l0,0-.12.08-.18.1-.18.1-.15.1-.1.07,0,0h0l-.1.05-.26.18h0l-.1.07,0,0h0l0,0,0,0-.05,0-.2.13-.18.12-.05,0h0l-.09,0v0h0l-.05,0-.34.2-.3.2-.25.18h0l0,0,0,0-.13.07-.12.08-.13.07-.15.11-.26.17-.1,0-.07,0-.06,0,0,0-.3.17-.13.08-.28.18-.08,0-.05,0,0,0-.33.2-.06,0-.1.08-.41.25-.05,0,0,0-.4.23-.1.07-.08,0-.15.1-.13.08,0,0-.1.08-.41.23-.35.25-.16.1h0l-.18.12-.15.08,0,0h0l-.1.08-.08,0-.07,0,0,0h-.13l0,0h0l-.06,0,0,0,0,0,0,0,0,0,0,0v-.05l0,0v0l0,0,0,0v-.28l0-.07,0,0v0l0-.05v0l0,0-.05,0-.05,0h0l0,0,0,0-.05,0v.05l0,0v.1l0,0v0l0,.05,0,0,0,0,0,0h-.08l0,0,0,0h0V123l0,0,0,0v0l0,0-.06,0-.07,0h-.05l0,0h-.1l0,0h-.06l-.09,0h-.06l0,0-.08,0v0H131v0l0,0v0L131,123v0l-.07.1v0l-.06,0,0,0h-.1l0,0,0,0v0h-.07l0,0-.05,0,0,0-.05,0,0,0,0-.06-.05,0h0l0,0h0l0,0,0,0,0,0-.05,0,0,0,0,.06h-.13l-.05,0-.05,0,0,0,0,0-.05,0,0-.06,0-.07,0-.08,0,0v0l0,0,.05,0,0,0v0l0-.05,0-.13-.06-.15-.07,0-.15,0-.1,0V122l0-.15,0-.17.15-.18,0-.1,0-.1v0l0-.13-.09-.17-.08-.16,0-.1v-.3l0-.1v0l0-.1,0-.05V120h0L129,120l-.08,0,0,0-.08,0,0-.07,0-.08v-.23l0,0,0,0h-.13l-.07,0,0,0v.05l0,.1,0,0h-.07l-.06,0h-.12l-.08,0-.08-.07,0,0,0,0v-.12l0,0,0-.08-.07,0-.06,0,0,0,0-.1,0,0-.2-.08,0,0h-.05l0,0,0-.05,0,0,0-.07,0,0v-.08l0-.07.06-.13v-.1l-.06-.08v0l0-.13,0,0h0l-.12-.08-.08,0-.12,0-.18-.1h0l0,0,0,0v-.13l0,0,0-.08,0,0,0,0,0,0h0l-.06,0,0,.07-.07,0,0,0-.08,0h-.15l0,0h0l-.08,0,0,0,0,0,0,0h0l-.08,0h-.08l-.09-.12-.08,0,0,0,0-.05v0l0-.08,0,0m0,0,0-.2,0-.13,0-.1,0,0,0,0-.06,0v0l0-.08-.08-.1,0,0-.05,0,0,0,0-.05,0,0,0,0V116l0,0v0l0-.15v-.08l0-.07v-.13l0,0v-.13l0-.05v-.48l0-.18v-2.33l0-.33v-3.37l0-.46V108l0,0,0,0,0-.07v0l0,0v-.05h0v-.2l0-.05v-1.74l0-.1v-.07l0-.35v0l.06,0h0l0,0h0l0,0h0l0,0h0l0,0h0l0,0h.21l0,0,0,0,0,0V105l0,0,0,0h0l0,0h0l0,0,0,0v0l0,0h0v0l0,0h0l0,0v0l0,0V105h0l0,0v-.07l0,0,0,0,0,0h0l0,0,0,0v0l0,0v0l0,0,.05,0,0,0h0l0,0h0v0h0l0,0,.06,0,0,0,.1,0,.15,0,0,0h.05l0,0,0,0,0,0,0,0,0,0,.07,0H127l0,0,0,0,0,0,0,0,0,0h.07l0,0,0,0,0,0h0l0,0h0l0,0h.23l0,0h.12v0h0m33.12-13.28v0l0,0-.05.12-.08.18,0,0v0l0,0v.31l-.13.15,0,0v0l-.08.08,0,0-.07.1,0,.08-.05.12h0l0,0v0l-.13.12-.08.13,0,0v.05h0v0l0,0-.07.15,0,.08-.13.17-.05.13,0,.1-.13.25v0l0,.1v0l-.07.46v.1l.09.25v0l.13.23,0,0v0l.07.13.06.1v0l.09.1,0,.23v.25l0,.08v.07l0,.1,0,.2,0,.1v.05l0,0v0l0,0,0,.07,0,.1-.13.18,0,.1-.15.53-.08.07v0l0,0,0,.28-.05.3,0,.08,0,.07,0,.13v.1l0,0,0,.07v0l0,0v0l0,0v0l0,.05-.08.25v0l0,0v0l0,0v0l0,0,0,.1-.05.13,0,.17v.08l0,.15v.1l.28,0,.08.3.07.31.08.22.08.33,0,.08,0,0v0h-.18l-.05,0h0l0,0h-.08l-.05,0,0,0v0l0,0,0,0-.05,0v0l0,0,0,0,0,0-.05.07v.08l0,0,0,0-.08.08,0,0,0,0h-.13l0,0-.06,0,0,0h-.15l0,0h-.1l0,0-.05,0H158l-.05,0,0,0-.05,0-.08,0-.05.05-.08.08,0,0-.13-.1h-.05l0,0h0l-.05,0-.05,0,0,0-.06,0-.05,0H157l-.06,0h-.07l0,0h0v0h0l-.08,0,0,.06,0,0,0,0,0-.05h0l0-.06,0,0-.08,0h0v0l0,0v0l0,0v0l-.1,0-.08-.05H156v0h0l-.13-.08h-.08l-.05,0-.07,0v-.08l-.15.08-.54.2-.51.22-.38.16-.05,0-.13,0-.15.08,0,0h0l-.23-.1-.08,0-.18-.08-.2-.12-.2-.11-.05,0h0l-.51-.25-.13-.08-.05,0-.07,0-.06,0,0,0-.23-.12-.16,0,0,0,0,0-.21-.1-.23-.11-.09-.05-.06,0-.05,0h0l0,0-.08,0-.15,0,0,0-.05,0-.36-.17,0,0h0l-.2-.1-.25-.13-.08,0,0,0-.07,0v0l-.08,0,0,0,0,0-.12,0-.23-.1-.33-.18h0l-.05,0,0-.08v0l0,0,0,0,0,0v0h0l0,0-.15-.23-.13-.15,0-.05h0l-.28-.38,0,0,0,0-.31-.38,0,0,0,0-.15-.23,0,0-.15-.2,0,0,0,0,0,0-.2-.27-.2-.26-.1-.12,0,0,0,0-.13-.15,0-.07L146,97.2l-.13-.15-.15-.2,0,0,0,0h0l0,0,0,0,0-.05v0h0v0l0,0,0,0,.15-.25.08-.15L146,96l0,0v0l0,0,.21-.35.12-.23.1-.17,0,0,0,0,.13-.21v0h0v0l0,0v0l0,0v0l.07-.13.23-.48v0l0,0,0,0v0l0-.05,0,0,.06-.16.05,0v-.05l.15-.3.13-.3,0,0v0l0,0,.15-.3,0-.06v0l.05-.08,0,0v0l0,0v-.1l-.08-.35,0-.15v-.15l0,0v0l0,0v0l0-.2v0L147.6,91v0l0,0,0-.12,0-.08,0-.1,0-.15,0,0v0l0-.1v0l-.07-.26v0l0,0v-.08l0,0v-.08l0,0v0l0-.05v-.08l-.07-.3,0-.08,0-.1,0-.1v0l0,0v-.08l0,0v-.07l0,0,0-.12,0-.08,0-.1v0l0-.07,0-.08-.1-.28v-.1l0,0v0l0-.05v0l0-.1,0-.1v0l-.06-.5v0l0,0v-.5l0-.08v-.42l0,0v0l0,0,.1-.33v0l0,0L147,85l.13-.4v-.06l.07-.2.33.08.31.07h0l0,0,.4.1.16,0,.1,0h.05l.07,0h.06v0h.05l.2,0,.18,0h0l.05,0h.08l.33.07,0,0h0l.06,0,.05,0,.07,0v0H150l.36.18.23.1.13,0,.12.07h0l0,0h0v0l0,0,.16,0,0,0,0,0,.1.05.13,0,.18.1.07,0,0,0h.06l.05,0,.07.05h0l.05,0,.33.15,0,0,.28.13h0l.08,0,.15.07.1.05.13,0h.07l.06,0h.12l.36,0h.05l0,0h.07l.38,0h0l.2,0,.06,0h.17l.1,0h.08l0,0H155l.13,0h.05l.05,0h.13l.23,0,.05,0h0l.31,0,.35,0,.18,0,.05,0h.13l.05,0h.43l.31,0h.3l.23-.18.43-.3,0,0h0l0,0h0l0,0,0,0h.05l0,0h0l0,0,0,0h.05l0,.06v.15h0v0l0,0,.08,0,0,0v0h0v.13h0v0l0,0,0,0,0,0v0l0,0v0l0,.06,0,0v.18l0,0v0l0,.05v0l0,0,0,0v.07h0l0,.08v0l0,0,0,0v0l0,0,0,0h0v0h0v.08l0,0-.1,0h-.08l0,0,0,0h-.18l0,0H158l0,0h-.1l0,0-.13.05h0l-.05,0,0,0-.1,0,0,0v0l0,0,0,.05,0,0v0l0,0,.08.1,0,0,.21.28.05,0,.13.17,0,0,.05,0,.13.17,0,0,0,0,0,.07,0,0h.2v0l0,.1v.05l.1,0,.2,0,.36,0,.22,0h0l0,0v-.08l.3.1.31.08.35.08.15,0h.06l.23,0,.25,0,0-.1,0-.18,0-.17,0-.25.23.22,0,0,.05,0,0,.05,0,0,0,0,.06,0,0,.28,0,0v.18l0,.2v0l0,.18v.4l0,.08v.53l0,0v.07l0,0v.05l0,0v0l0,0v.06l0,0v.1l0,0-.08.2v0l0,0v.1l0,0v0h0v0l0,0v0l0,0,0,0v0l0,0,0,0v0ZM99.92,105.93v0h0v.1l0,0v0H98.74v-.46h-.81l-.1,0H97l-.1,0v-.4H95.57l-.13,0h0l-.09,0H95v1.18l0,.41v.63h-.68l-.08,0h-1V107l0-.22H92.07l0,0H91l-.38,0H88.87l-.15,0h-1l-.31,0h-.13l-.2,0h-.36v-1.13h0l0-.43v-.15l0-.25v-1.56h.15l0-.41,0-.22V102l0-.33v-.45l0-.08v-.52l0-.06v-.4l0-.15v-.4l0,0v-.48l0-.15v-.25l0-.26v-.37l0-.08V97.6l0-.25v-.07l0-.36v-.37l0-.35h.22l.06,0h.73l.08,0h.58l.26,0h.23l.05,0,.1,0,0,0h0l0,0,0,0h.49l.38,0-.08,0-.15-.1-.21-.13-.15-.1-.18-.12-.15-.13,0,0-.21-.2,0-.08-.18-.2-.2-.25-.18-.25L88,94.18l-.18-.3-.1-.23-.1-.22v0l-.1-.25.61,0,.34,0h.35l.1,0H89v.13h.28l.18,0h.46l0,0h.43l.16,0h.35l.1,0h.33l.38,0h.36l0,0h.35l.15,0H93l.08,0h.53v.35h.1l.18,0h.51l.3,0H95l0,0h.31l.38,0h.51l.13,0H97l.56,0h.12l.16,0h.48l.13,0h.56l0,0h.28v.33l0,.3v.43l0,.35v.28l0,.25v.25l0,.13v.15l0,.3v.6l0,0v.25l0,.45v.38l0,.07v.18l0,.5v.18l0,.35v.18l0,.25v.35l0,.3v.18l0,.35v.25l0,.38v.2l0,.3v.08l-.53,0-.51,0h-.13v0h0l0,0v0h0v0h0V102h0v0h0v.08h0v.1h0v0h0v.07l0,0v.07h0v.13h0v.05h0v0h0v0h0v0h0v.07h0l0,0h.08v0h0v0h.05v0h.08v0h0v0h0v0h0v0h.13l0,0v0H99v0l0,0v.08h0l0,0h0v0h0l.07,0h.1v0h0l0,0h.05v.08h.1v0l0,0v0h0v0h0v0h0v0h0v0h0v0h0v0l0,0h0v0h0l0,0v0h0v0H100v0h0v0h0l0,0h.05v.11h0v0h0v.08l0,0v0l0,0v.18h0v0h0v0h0v0h0v.07h0v0l0,0v0l0,0v0l0,.06,0,0h0v.08h0v.07h0v0h0v0h0v0h0v0h0v0h0v.07h0v.08l0,0v.08h0l0,0h0v0h0v0h0v.12h0v.08h0v.12h0v.08l0,0v.18l0,0v.1h0v0h0v.13h0v.1Z"/></g></g></g></svg>